<?xml version="1.0" encoding="UTF-8" standalone="no"?>
<!DOCTYPE svg PUBLIC "-//W3C//DTD SVG 1.1//EN"
 "http://www.w3.org/Graphics/SVG/1.1/DTD/svg11.dtd">
<!-- Generated by graphviz version 2.47.0 (20210316.0004)
 -->
<!-- Title: dependencies Pages: 1 -->
<svg width="565pt" height="284pt"
 viewBox="0.00 0.00 565.00 284.00" xmlns="http://www.w3.org/2000/svg" xmlns:xlink="http://www.w3.org/1999/xlink">
<g id="graph0" class="graph" transform="scale(1 1) rotate(0) translate(4 280)">
<title>dependencies</title>
<polygon fill="white" stroke="transparent" points="-4,4 -4,-280 561,-280 561,4 -4,4"/>
<text text-anchor="start" x="257.51" y="-42.4" font-family="Times-12" font-weight="bold" font-size="14.00">Legend</text>
<polygon fill="#ffffb3" stroke="transparent" points="44.5,-10 44.5,-30 64.5,-30 64.5,-10 44.5,-10"/>
<text text-anchor="start" x="68.13" y="-15.4" font-family="Times-12" font-size="14.00"> &#160;Declarations</text>
<polygon fill="#8dd3c7" stroke="transparent" points="157.5,-10 157.5,-30 177.5,-30 177.5,-10 157.5,-10"/>
<text text-anchor="start" x="181.23" y="-15.4" font-family="Times-12" font-size="14.00"> &#160;Module</text>
<polygon fill="#80b1d3" stroke="transparent" points="243.5,-10 243.5,-30 263.5,-30 263.5,-10 243.5,-10"/>
<text text-anchor="start" x="267.28" y="-15.4" font-family="Times-12" font-size="14.00"> &#160;Bootstrap</text>
<polygon fill="#fdb462" stroke="transparent" points="340.5,-10 340.5,-30 360.5,-30 360.5,-10 340.5,-10"/>
<text text-anchor="start" x="364.17" y="-15.4" font-family="Times-12" font-size="14.00"> &#160;Providers</text>
<polygon fill="#fb8072" stroke="transparent" points="436.5,-10 436.5,-30 456.5,-30 456.5,-10 436.5,-10"/>
<text text-anchor="start" x="460.23" y="-15.4" font-family="Times-12" font-size="14.00"> &#160;Exports</text>
<g id="clust1" class="cluster">
<title>cluster_CommentsModule</title>
<polygon fill="none" stroke="black" stroke-dasharray="1,5" points="8,-70 8,-268 549,-268 549,-70 8,-70"/>
</g>
<g id="clust3" class="cluster">
<title>cluster_CommentsModule_imports</title>
<polygon fill="none" stroke="black" points="204,-78 204,-130 541,-130 541,-78 204,-78"/>
</g>
<g id="clust6" class="cluster">
<title>cluster_CommentsModule_providers</title>
<polygon fill="none" stroke="black" points="16,-78 16,-130 196,-130 196,-78 16,-78"/>
</g>
<g id="clust4" class="cluster">
<title>cluster_CommentsModule_exports</title>
<polygon fill="none" stroke="black" points="255,-208 255,-260 393,-260 393,-208 255,-208"/>
</g>
<!-- AuthModule -->
<g id="node1" class="node">
<title>AuthModule</title>
<polygon fill="#8dd3c7" stroke="black" points="532.55,-122 529.55,-126 508.55,-126 505.55,-122 445.45,-122 445.45,-86 532.55,-86 532.55,-122"/>
<text text-anchor="middle" x="489" y="-99.8" font-family="Times,serif" font-size="14.00">AuthModule</text>
</g>
<!-- CommentsModule -->
<g id="node4" class="node">
<title>CommentsModule</title>
<polygon fill="#8dd3c7" stroke="black" points="384.22,-187 381.22,-191 360.22,-191 357.22,-187 263.78,-187 263.78,-151 384.22,-151 384.22,-187"/>
<text text-anchor="middle" x="324" y="-164.8" font-family="Times,serif" font-size="14.00">CommentsModule</text>
</g>
<!-- AuthModule&#45;&gt;CommentsModule -->
<g id="edge1" class="edge">
<title>AuthModule&#45;&gt;CommentsModule</title>
<path fill="none" stroke="black" d="M489,-122.11C489,-141.34 489,-169 489,-169 489,-169 394.5,-169 394.5,-169"/>
<polygon fill="black" stroke="black" points="394.5,-165.5 384.5,-169 394.5,-172.5 394.5,-165.5"/>
</g>
<!-- PostsModule -->
<g id="node2" class="node">
<title>PostsModule</title>
<polygon fill="#8dd3c7" stroke="black" points="427.61,-122 424.61,-126 403.61,-126 400.61,-122 338.39,-122 338.39,-86 427.61,-86 427.61,-122"/>
<text text-anchor="middle" x="383" y="-99.8" font-family="Times,serif" font-size="14.00">PostsModule</text>
</g>
<!-- PostsModule&#45;&gt;CommentsModule -->
<g id="edge2" class="edge">
<title>PostsModule&#45;&gt;CommentsModule</title>
<path fill="none" stroke="black" d="M361.28,-122.11C361.28,-122.11 361.28,-140.99 361.28,-140.99"/>
<polygon fill="black" stroke="black" points="357.78,-140.99 361.28,-150.99 364.78,-140.99 357.78,-140.99"/>
</g>
<!-- ProductsModule -->
<g id="node3" class="node">
<title>ProductsModule</title>
<polygon fill="#8dd3c7" stroke="black" points="320.04,-122 317.04,-126 296.04,-126 293.04,-122 211.96,-122 211.96,-86 320.04,-86 320.04,-122"/>
<text text-anchor="middle" x="266" y="-99.8" font-family="Times,serif" font-size="14.00">ProductsModule</text>
</g>
<!-- ProductsModule&#45;&gt;CommentsModule -->
<g id="edge3" class="edge">
<title>ProductsModule&#45;&gt;CommentsModule</title>
<path fill="none" stroke="black" d="M292.08,-122.11C292.08,-122.11 292.08,-140.99 292.08,-140.99"/>
<polygon fill="black" stroke="black" points="288.58,-140.99 292.08,-150.99 295.58,-140.99 288.58,-140.99"/>
</g>
<!-- CommentsService  -->
<g id="node5" class="node">
<title>CommentsService </title>
<polygon fill="#fb8072" stroke="black" points="385.15,-252 262.85,-252 262.85,-216 385.15,-216 385.15,-252"/>
<text text-anchor="middle" x="324" y="-229.8" font-family="Times,serif" font-size="14.00">CommentsService </text>
</g>
<!-- CommentsModule&#45;&gt;CommentsService  -->
<g id="edge4" class="edge">
<title>CommentsModule&#45;&gt;CommentsService </title>
<path fill="none" stroke="black" stroke-dasharray="5,2" d="M324,-187.11C324,-187.11 324,-205.99 324,-205.99"/>
<polygon fill="black" stroke="black" points="320.5,-205.99 324,-215.99 327.5,-205.99 320.5,-205.99"/>
</g>
<!-- CommentsService -->
<g id="node6" class="node">
<title>CommentsService</title>
<ellipse fill="#fdb462" stroke="black" cx="106" cy="-104" rx="81.68" ry="18"/>
<text text-anchor="middle" x="106" y="-99.8" font-family="Times,serif" font-size="14.00">CommentsService</text>
</g>
<!-- CommentsService&#45;&gt;CommentsModule -->
<g id="edge5" class="edge">
<title>CommentsService&#45;&gt;CommentsModule</title>
<path fill="none" stroke="black" d="M106,-122.11C106,-141.34 106,-169 106,-169 106,-169 253.85,-169 253.85,-169"/>
<polygon fill="black" stroke="black" points="253.85,-172.5 263.85,-169 253.85,-165.5 253.85,-172.5"/>
</g>
</g>
</svg>
