<?xml version="1.0" encoding="UTF-8" standalone="no"?>
<!DOCTYPE svg PUBLIC "-//W3C//DTD SVG 1.1//EN"
 "http://www.w3.org/Graphics/SVG/1.1/DTD/svg11.dtd">
<!-- Generated by graphviz version 2.47.0 (20210316.0004)
 -->
<!-- Title: dependencies Pages: 1 -->
<svg width="1059pt" height="284pt"
 viewBox="0.00 0.00 1059.00 284.00" xmlns="http://www.w3.org/2000/svg" xmlns:xlink="http://www.w3.org/1999/xlink">
<g id="graph0" class="graph" transform="scale(1 1) rotate(0) translate(4 280)">
<title>dependencies</title>
<polygon fill="white" stroke="transparent" points="-4,4 -4,-280 1055,-280 1055,4 -4,4"/>
<text text-anchor="start" x="504.51" y="-42.4" font-family="Times-12" font-weight="bold" font-size="14.00">Legend</text>
<polygon fill="#ffffb3" stroke="transparent" points="291.5,-10 291.5,-30 311.5,-30 311.5,-10 291.5,-10"/>
<text text-anchor="start" x="315.13" y="-15.4" font-family="Times-12" font-size="14.00"> &#160;Declarations</text>
<polygon fill="#8dd3c7" stroke="transparent" points="404.5,-10 404.5,-30 424.5,-30 424.5,-10 404.5,-10"/>
<text text-anchor="start" x="428.23" y="-15.4" font-family="Times-12" font-size="14.00"> &#160;Module</text>
<polygon fill="#80b1d3" stroke="transparent" points="490.5,-10 490.5,-30 510.5,-30 510.5,-10 490.5,-10"/>
<text text-anchor="start" x="514.28" y="-15.4" font-family="Times-12" font-size="14.00"> &#160;Bootstrap</text>
<polygon fill="#fdb462" stroke="transparent" points="587.5,-10 587.5,-30 607.5,-30 607.5,-10 587.5,-10"/>
<text text-anchor="start" x="611.17" y="-15.4" font-family="Times-12" font-size="14.00"> &#160;Providers</text>
<polygon fill="#fb8072" stroke="transparent" points="683.5,-10 683.5,-30 703.5,-30 703.5,-10 683.5,-10"/>
<text text-anchor="start" x="707.23" y="-15.4" font-family="Times-12" font-size="14.00"> &#160;Exports</text>
<g id="clust1" class="cluster">
<title>cluster_AuthModule</title>
<polygon fill="none" stroke="black" stroke-dasharray="1,5" points="8,-70 8,-268 1043,-268 1043,-70 8,-70"/>
</g>
<g id="clust6" class="cluster">
<title>cluster_AuthModule_providers</title>
<polygon fill="none" stroke="black" points="16,-78 16,-130 1035,-130 1035,-78 16,-78"/>
</g>
<g id="clust4" class="cluster">
<title>cluster_AuthModule_exports</title>
<polygon fill="none" stroke="black" points="347,-208 347,-260 733,-260 733,-208 347,-208"/>
</g>
<!-- AccessTokenGuard  -->
<g id="node1" class="node">
<title>AccessTokenGuard </title>
<polygon fill="#fb8072" stroke="black" points="724.89,-252 595.11,-252 595.11,-216 724.89,-216 724.89,-252"/>
<text text-anchor="middle" x="660" y="-229.8" font-family="Times,serif" font-size="14.00">AccessTokenGuard </text>
</g>
<!-- AuthService  -->
<g id="node2" class="node">
<title>AuthService </title>
<polygon fill="#fb8072" stroke="black" points="576.98,-252 487.02,-252 487.02,-216 576.98,-216 576.98,-252"/>
<text text-anchor="middle" x="532" y="-229.8" font-family="Times,serif" font-size="14.00">AuthService </text>
</g>
<!-- HashingProvider  -->
<g id="node3" class="node">
<title>HashingProvider </title>
<polygon fill="#fb8072" stroke="black" points="469.37,-252 354.63,-252 354.63,-216 469.37,-216 469.37,-252"/>
<text text-anchor="middle" x="412" y="-229.8" font-family="Times,serif" font-size="14.00">HashingProvider </text>
</g>
<!-- AuthModule -->
<g id="node4" class="node">
<title>AuthModule</title>
<polygon fill="#8dd3c7" stroke="black" points="575.55,-187 572.55,-191 551.55,-191 548.55,-187 488.45,-187 488.45,-151 575.55,-151 575.55,-187"/>
<text text-anchor="middle" x="532" y="-164.8" font-family="Times,serif" font-size="14.00">AuthModule</text>
</g>
<!-- AuthModule&#45;&gt;AccessTokenGuard  -->
<g id="edge1" class="edge">
<title>AuthModule&#45;&gt;AccessTokenGuard </title>
<path fill="none" stroke="black" stroke-dasharray="5,2" d="M575.62,-178C600.37,-178 626.43,-178 626.43,-178 626.43,-178 626.43,-205.97 626.43,-205.97"/>
<polygon fill="black" stroke="black" points="622.93,-205.97 626.43,-215.97 629.93,-205.97 622.93,-205.97"/>
</g>
<!-- AuthModule&#45;&gt;AuthService  -->
<g id="edge2" class="edge">
<title>AuthModule&#45;&gt;AuthService </title>
<path fill="none" stroke="black" stroke-dasharray="5,2" d="M532,-187.11C532,-187.11 532,-205.99 532,-205.99"/>
<polygon fill="black" stroke="black" points="528.5,-205.99 532,-215.99 535.5,-205.99 528.5,-205.99"/>
</g>
<!-- AuthModule&#45;&gt;HashingProvider  -->
<g id="edge3" class="edge">
<title>AuthModule&#45;&gt;HashingProvider </title>
<path fill="none" stroke="black" stroke-dasharray="5,2" d="M488.43,-178C463.72,-178 437.69,-178 437.69,-178 437.69,-178 437.69,-205.97 437.69,-205.97"/>
<polygon fill="black" stroke="black" points="434.19,-205.97 437.69,-215.97 441.19,-205.97 434.19,-205.97"/>
</g>
<!-- AuthService -->
<g id="node5" class="node">
<title>AuthService</title>
<ellipse fill="#fdb462" stroke="black" cx="968" cy="-104" rx="59.11" ry="18"/>
<text text-anchor="middle" x="968" y="-99.8" font-family="Times,serif" font-size="14.00">AuthService</text>
</g>
<!-- AuthService&#45;&gt;AuthModule -->
<g id="edge4" class="edge">
<title>AuthService&#45;&gt;AuthModule</title>
<path fill="none" stroke="black" d="M968,-122.11C968,-141.34 968,-169 968,-169 968,-169 585.8,-169 585.8,-169"/>
<polygon fill="black" stroke="black" points="585.8,-165.5 575.8,-169 585.8,-172.5 585.8,-165.5"/>
</g>
<!-- GenerateTokensProvider -->
<g id="node6" class="node">
<title>GenerateTokensProvider</title>
<ellipse fill="#fdb462" stroke="black" cx="783" cy="-104" rx="107.63" ry="18"/>
<text text-anchor="middle" x="783" y="-99.8" font-family="Times,serif" font-size="14.00">GenerateTokensProvider</text>
</g>
<!-- GenerateTokensProvider&#45;&gt;AuthModule -->
<g id="edge5" class="edge">
<title>GenerateTokensProvider&#45;&gt;AuthModule</title>
<path fill="none" stroke="black" d="M700.19,-115.6C700.19,-132.01 700.19,-160 700.19,-160 700.19,-160 585.75,-160 585.75,-160"/>
<polygon fill="black" stroke="black" points="585.75,-156.5 575.75,-160 585.75,-163.5 585.75,-156.5"/>
</g>
<!-- GoogleAuthenticationService -->
<g id="node7" class="node">
<title>GoogleAuthenticationService</title>
<ellipse fill="#fdb462" stroke="black" cx="532" cy="-104" rx="125.62" ry="18"/>
<text text-anchor="middle" x="532" y="-99.8" font-family="Times,serif" font-size="14.00">GoogleAuthenticationService</text>
</g>
<!-- GoogleAuthenticationService&#45;&gt;AuthModule -->
<g id="edge6" class="edge">
<title>GoogleAuthenticationService&#45;&gt;AuthModule</title>
<path fill="none" stroke="black" d="M532,-122.11C532,-122.11 532,-140.99 532,-140.99"/>
<polygon fill="black" stroke="black" points="528.5,-140.99 532,-150.99 535.5,-140.99 528.5,-140.99"/>
</g>
<!-- RefreshTokensProvider -->
<g id="node8" class="node">
<title>RefreshTokensProvider</title>
<ellipse fill="#fdb462" stroke="black" cx="285" cy="-104" rx="102.99" ry="18"/>
<text text-anchor="middle" x="285" y="-99.8" font-family="Times,serif" font-size="14.00">RefreshTokensProvider</text>
</g>
<!-- RefreshTokensProvider&#45;&gt;AuthModule -->
<g id="edge7" class="edge">
<title>RefreshTokensProvider&#45;&gt;AuthModule</title>
<path fill="none" stroke="black" d="M371.28,-114.01C371.28,-130.12 371.28,-160 371.28,-160 371.28,-160 478.08,-160 478.08,-160"/>
<polygon fill="black" stroke="black" points="478.08,-163.5 488.08,-160 478.08,-156.5 478.08,-163.5"/>
</g>
<!-- SignInProvider -->
<g id="node9" class="node">
<title>SignInProvider</title>
<ellipse fill="#fdb462" stroke="black" cx="94" cy="-104" rx="70.08" ry="18"/>
<text text-anchor="middle" x="94" y="-99.8" font-family="Times,serif" font-size="14.00">SignInProvider</text>
</g>
<!-- SignInProvider&#45;&gt;AuthModule -->
<g id="edge8" class="edge">
<title>SignInProvider&#45;&gt;AuthModule</title>
<path fill="none" stroke="black" d="M94,-122.11C94,-141.34 94,-169 94,-169 94,-169 478.4,-169 478.4,-169"/>
<polygon fill="black" stroke="black" points="478.4,-172.5 488.4,-169 478.4,-165.5 478.4,-172.5"/>
</g>
</g>
</svg>
