<?xml version="1.0" encoding="UTF-8" standalone="no"?>
<!DOCTYPE svg PUBLIC "-//W3C//DTD SVG 1.1//EN"
 "http://www.w3.org/Graphics/SVG/1.1/DTD/svg11.dtd">
<!-- Generated by graphviz version 2.47.0 (20210316.0004)
 -->
<!-- Title: dependencies Pages: 1 -->
<svg width="1378pt" height="211pt"
 viewBox="0.00 0.00 1378.00 211.00" xmlns="http://www.w3.org/2000/svg" xmlns:xlink="http://www.w3.org/1999/xlink">
<g id="graph0" class="graph" transform="scale(1 1) rotate(0) translate(4 207)">
<title>dependencies</title>
<polygon fill="white" stroke="transparent" points="-4,4 -4,-207 1374,-207 1374,4 -4,4"/>
<text text-anchor="start" x="664.01" y="-42.4" font-family="Times-12" font-weight="bold" font-size="14.00">Legend</text>
<polygon fill="#ffffb3" stroke="transparent" points="451,-10 451,-30 471,-30 471,-10 451,-10"/>
<text text-anchor="start" x="474.63" y="-15.4" font-family="Times-12" font-size="14.00"> &#160;Declarations</text>
<polygon fill="#8dd3c7" stroke="transparent" points="564,-10 564,-30 584,-30 584,-10 564,-10"/>
<text text-anchor="start" x="587.73" y="-15.4" font-family="Times-12" font-size="14.00"> &#160;Module</text>
<polygon fill="#80b1d3" stroke="transparent" points="650,-10 650,-30 670,-30 670,-10 650,-10"/>
<text text-anchor="start" x="673.78" y="-15.4" font-family="Times-12" font-size="14.00"> &#160;Bootstrap</text>
<polygon fill="#fdb462" stroke="transparent" points="747,-10 747,-30 767,-30 767,-10 747,-10"/>
<text text-anchor="start" x="770.67" y="-15.4" font-family="Times-12" font-size="14.00"> &#160;Providers</text>
<polygon fill="#fb8072" stroke="transparent" points="843,-10 843,-30 863,-30 863,-10 843,-10"/>
<text text-anchor="start" x="866.73" y="-15.4" font-family="Times-12" font-size="14.00"> &#160;Exports</text>
<g id="clust1" class="cluster">
<title>cluster_AppModule</title>
<polygon fill="none" stroke="black" stroke-dasharray="1,5" points="8,-70 8,-195 1362,-195 1362,-70 8,-70"/>
</g>
<g id="clust3" class="cluster">
<title>cluster_AppModule_imports</title>
<polygon fill="none" stroke="black" points="154,-78 154,-130 1354,-130 1354,-78 154,-78"/>
</g>
<g id="clust6" class="cluster">
<title>cluster_AppModule_providers</title>
<polygon fill="none" stroke="black" points="16,-78 16,-130 146,-130 146,-78 16,-78"/>
</g>
<!-- AuthModule -->
<g id="node1" class="node">
<title>AuthModule</title>
<polygon fill="#8dd3c7" stroke="black" points="1345.55,-122 1342.55,-126 1321.55,-126 1318.55,-122 1258.45,-122 1258.45,-86 1345.55,-86 1345.55,-122"/>
<text text-anchor="middle" x="1302" y="-99.8" font-family="Times,serif" font-size="14.00">AuthModule</text>
</g>
<!-- AppModule -->
<g id="node11" class="node">
<title>AppModule</title>
<polygon fill="#8dd3c7" stroke="black" points="708.66,-187 705.66,-191 684.66,-191 681.66,-187 625.34,-187 625.34,-151 708.66,-151 708.66,-187"/>
<text text-anchor="middle" x="667" y="-164.8" font-family="Times,serif" font-size="14.00">AppModule</text>
</g>
<!-- AuthModule&#45;&gt;AppModule -->
<g id="edge1" class="edge">
<title>AuthModule&#45;&gt;AppModule</title>
<path fill="none" stroke="black" d="M1302,-122.09C1302,-145.13 1302,-182 1302,-182 1302,-182 718.66,-182 718.66,-182"/>
<polygon fill="black" stroke="black" points="718.66,-178.5 708.66,-182 718.66,-185.5 718.66,-178.5"/>
</g>
<!-- CatalogModule -->
<g id="node2" class="node">
<title>CatalogModule</title>
<polygon fill="#8dd3c7" stroke="black" points="1240.6,-122 1237.6,-126 1216.6,-126 1213.6,-122 1137.4,-122 1137.4,-86 1240.6,-86 1240.6,-122"/>
<text text-anchor="middle" x="1189" y="-99.8" font-family="Times,serif" font-size="14.00">CatalogModule</text>
</g>
<!-- CatalogModule&#45;&gt;AppModule -->
<g id="edge2" class="edge">
<title>CatalogModule&#45;&gt;AppModule</title>
<path fill="none" stroke="black" d="M1189,-122.28C1189,-143.32 1189,-175 1189,-175 1189,-175 718.84,-175 718.84,-175"/>
<polygon fill="black" stroke="black" points="718.84,-171.5 708.84,-175 718.84,-178.5 718.84,-171.5"/>
</g>
<!-- CommentsModule -->
<g id="node3" class="node">
<title>CommentsModule</title>
<polygon fill="#8dd3c7" stroke="black" points="1119.22,-122 1116.22,-126 1095.22,-126 1092.22,-122 998.78,-122 998.78,-86 1119.22,-86 1119.22,-122"/>
<text text-anchor="middle" x="1059" y="-99.8" font-family="Times,serif" font-size="14.00">CommentsModule</text>
</g>
<!-- CommentsModule&#45;&gt;AppModule -->
<g id="edge3" class="edge">
<title>CommentsModule&#45;&gt;AppModule</title>
<path fill="none" stroke="black" d="M1059,-122.11C1059,-141.34 1059,-169 1059,-169 1059,-169 718.95,-169 718.95,-169"/>
<polygon fill="black" stroke="black" points="718.95,-165.5 708.95,-169 718.95,-172.5 718.95,-165.5"/>
</g>
<!-- MailModule -->
<g id="node4" class="node">
<title>MailModule</title>
<polygon fill="#8dd3c7" stroke="black" points="980.99,-122 977.99,-126 956.99,-126 953.99,-122 895.01,-122 895.01,-86 980.99,-86 980.99,-122"/>
<text text-anchor="middle" x="938" y="-99.8" font-family="Times,serif" font-size="14.00">MailModule</text>
</g>
<!-- MailModule&#45;&gt;AppModule -->
<g id="edge4" class="edge">
<title>MailModule&#45;&gt;AppModule</title>
<path fill="none" stroke="black" d="M938,-122.02C938,-139.37 938,-163 938,-163 938,-163 718.75,-163 718.75,-163"/>
<polygon fill="black" stroke="black" points="718.75,-159.5 708.75,-163 718.75,-166.5 718.75,-159.5"/>
</g>
<!-- MetaOptionsModule -->
<g id="node5" class="node">
<title>MetaOptionsModule</title>
<polygon fill="#8dd3c7" stroke="black" points="877.15,-122 874.15,-126 853.15,-126 850.15,-122 744.85,-122 744.85,-86 877.15,-86 877.15,-122"/>
<text text-anchor="middle" x="811" y="-99.8" font-family="Times,serif" font-size="14.00">MetaOptionsModule</text>
</g>
<!-- MetaOptionsModule&#45;&gt;AppModule -->
<g id="edge5" class="edge">
<title>MetaOptionsModule&#45;&gt;AppModule</title>
<path fill="none" stroke="black" d="M811,-122.24C811,-137.57 811,-157 811,-157 811,-157 719.04,-157 719.04,-157"/>
<polygon fill="black" stroke="black" points="719.04,-153.5 709.04,-157 719.04,-160.5 719.04,-153.5"/>
</g>
<!-- PaginationModule -->
<g id="node6" class="node">
<title>PaginationModule</title>
<polygon fill="#8dd3c7" stroke="black" points="726.93,-122 723.93,-126 702.93,-126 699.93,-122 607.07,-122 607.07,-86 726.93,-86 726.93,-122"/>
<text text-anchor="middle" x="667" y="-99.8" font-family="Times,serif" font-size="14.00">PaginationModule</text>
</g>
<!-- PaginationModule&#45;&gt;AppModule -->
<g id="edge6" class="edge">
<title>PaginationModule&#45;&gt;AppModule</title>
<path fill="none" stroke="black" d="M667,-122.11C667,-122.11 667,-140.99 667,-140.99"/>
<polygon fill="black" stroke="black" points="663.5,-140.99 667,-150.99 670.5,-140.99 663.5,-140.99"/>
</g>
<!-- PostsModule -->
<g id="node7" class="node">
<title>PostsModule</title>
<polygon fill="#8dd3c7" stroke="black" points="589.61,-122 586.61,-126 565.61,-126 562.61,-122 500.39,-122 500.39,-86 589.61,-86 589.61,-122"/>
<text text-anchor="middle" x="545" y="-99.8" font-family="Times,serif" font-size="14.00">PostsModule</text>
</g>
<!-- PostsModule&#45;&gt;AppModule -->
<g id="edge7" class="edge">
<title>PostsModule&#45;&gt;AppModule</title>
<path fill="none" stroke="black" d="M545,-122.24C545,-137.57 545,-157 545,-157 545,-157 615.01,-157 615.01,-157"/>
<polygon fill="black" stroke="black" points="615.01,-160.5 625.01,-157 615.01,-153.5 615.01,-160.5"/>
</g>
<!-- TagsModule -->
<g id="node8" class="node">
<title>TagsModule</title>
<polygon fill="#8dd3c7" stroke="black" points="482.26,-122 479.26,-126 458.26,-126 455.26,-122 395.74,-122 395.74,-86 482.26,-86 482.26,-122"/>
<text text-anchor="middle" x="439" y="-99.8" font-family="Times,serif" font-size="14.00">TagsModule</text>
</g>
<!-- TagsModule&#45;&gt;AppModule -->
<g id="edge8" class="edge">
<title>TagsModule&#45;&gt;AppModule</title>
<path fill="none" stroke="black" d="M439,-122.02C439,-139.37 439,-163 439,-163 439,-163 615.18,-163 615.18,-163"/>
<polygon fill="black" stroke="black" points="615.18,-166.5 625.18,-163 615.18,-159.5 615.18,-166.5"/>
</g>
<!-- UploadsModule -->
<g id="node9" class="node">
<title>UploadsModule</title>
<polygon fill="#8dd3c7" stroke="black" points="378.21,-122 375.21,-126 354.21,-126 351.21,-122 271.79,-122 271.79,-86 378.21,-86 378.21,-122"/>
<text text-anchor="middle" x="325" y="-99.8" font-family="Times,serif" font-size="14.00">UploadsModule</text>
</g>
<!-- UploadsModule&#45;&gt;AppModule -->
<g id="edge9" class="edge">
<title>UploadsModule&#45;&gt;AppModule</title>
<path fill="none" stroke="black" d="M325,-122.11C325,-141.34 325,-169 325,-169 325,-169 615.06,-169 615.06,-169"/>
<polygon fill="black" stroke="black" points="615.06,-172.5 625.06,-169 615.06,-165.5 615.06,-172.5"/>
</g>
<!-- UsersModule -->
<g id="node10" class="node">
<title>UsersModule</title>
<polygon fill="#8dd3c7" stroke="black" points="253.92,-122 250.92,-126 229.92,-126 226.92,-122 162.08,-122 162.08,-86 253.92,-86 253.92,-122"/>
<text text-anchor="middle" x="208" y="-99.8" font-family="Times,serif" font-size="14.00">UsersModule</text>
</g>
<!-- UsersModule&#45;&gt;AppModule -->
<g id="edge10" class="edge">
<title>UsersModule&#45;&gt;AppModule</title>
<path fill="none" stroke="black" d="M208,-122.28C208,-143.32 208,-175 208,-175 208,-175 615.05,-175 615.05,-175"/>
<polygon fill="black" stroke="black" points="615.05,-178.5 625.05,-175 615.05,-171.5 615.05,-178.5"/>
</g>
<!-- AppService -->
<g id="node12" class="node">
<title>AppService</title>
<ellipse fill="#fdb462" stroke="black" cx="81" cy="-104" rx="56.74" ry="18"/>
<text text-anchor="middle" x="81" y="-99.8" font-family="Times,serif" font-size="14.00">AppService</text>
</g>
<!-- AppService&#45;&gt;AppModule -->
<g id="edge11" class="edge">
<title>AppService&#45;&gt;AppModule</title>
<path fill="none" stroke="black" d="M81,-122.09C81,-145.13 81,-182 81,-182 81,-182 615.33,-182 615.33,-182"/>
<polygon fill="black" stroke="black" points="615.33,-185.5 625.33,-182 615.33,-178.5 615.33,-185.5"/>
</g>
</g>
</svg>
