<?xml version="1.0" encoding="UTF-8" standalone="no"?>
<!DOCTYPE svg PUBLIC "-//W3C//DTD SVG 1.1//EN"
 "http://www.w3.org/Graphics/SVG/1.1/DTD/svg11.dtd">
<!-- Generated by graphviz version 2.47.0 (20210316.0004)
 -->
<!-- Title: dependencies Pages: 1 -->
<svg width="3440pt" height="450pt"
 viewBox="0.00 0.00 3440.00 450.00" xmlns="http://www.w3.org/2000/svg" xmlns:xlink="http://www.w3.org/1999/xlink">
<g id="graph0" class="graph" transform="scale(1 1) rotate(0) translate(4 446)">
<title>dependencies</title>
<polygon fill="white" stroke="transparent" points="-4,4 -4,-446 3436,-446 3436,4 -4,4"/>
<text text-anchor="start" x="1695.01" y="-42.4" font-family="Times-12" font-weight="bold" font-size="14.00">Legend</text>
<polygon fill="#ffffb3" stroke="transparent" points="1482,-10 1482,-30 1502,-30 1502,-10 1482,-10"/>
<text text-anchor="start" x="1505.63" y="-15.4" font-family="Times-12" font-size="14.00"> &#160;Declarations</text>
<polygon fill="#8dd3c7" stroke="transparent" points="1595,-10 1595,-30 1615,-30 1615,-10 1595,-10"/>
<text text-anchor="start" x="1618.73" y="-15.4" font-family="Times-12" font-size="14.00"> &#160;Module</text>
<polygon fill="#80b1d3" stroke="transparent" points="1681,-10 1681,-30 1701,-30 1701,-10 1681,-10"/>
<text text-anchor="start" x="1704.78" y="-15.4" font-family="Times-12" font-size="14.00"> &#160;Bootstrap</text>
<polygon fill="#fdb462" stroke="transparent" points="1778,-10 1778,-30 1798,-30 1798,-10 1778,-10"/>
<text text-anchor="start" x="1801.67" y="-15.4" font-family="Times-12" font-size="14.00"> &#160;Providers</text>
<polygon fill="#fb8072" stroke="transparent" points="1874,-10 1874,-30 1894,-30 1894,-10 1874,-10"/>
<text text-anchor="start" x="1897.73" y="-15.4" font-family="Times-12" font-size="14.00"> &#160;Exports</text>
<g id="clust49" class="cluster">
<title>cluster_PostsModule</title>
<polygon fill="none" stroke="black" stroke-dasharray="1,5" points="1478,-146 1478,-274 2178,-274 2178,-146 1478,-146"/>
</g>
<g id="clust51" class="cluster">
<title>cluster_PostsModule_imports</title>
<polygon fill="none" stroke="black" points="1821,-154 1821,-206 2170,-206 2170,-154 1821,-154"/>
</g>
<g id="clust54" class="cluster">
<title>cluster_PostsModule_providers</title>
<polygon fill="none" stroke="black" points="1486,-154 1486,-206 1813,-206 1813,-154 1486,-154"/>
</g>
<g id="clust55" class="cluster">
<title>cluster_ProductsModule</title>
<polygon fill="none" stroke="black" stroke-dasharray="1,5" points="1178,-146 1178,-358 1470,-358 1470,-146 1178,-146"/>
</g>
<g id="clust57" class="cluster">
<title>cluster_ProductsModule_imports</title>
<polygon fill="none" stroke="black" points="1358,-154 1358,-206 1462,-206 1462,-154 1358,-154"/>
</g>
<g id="clust58" class="cluster">
<title>cluster_ProductsModule_exports</title>
<polygon fill="none" stroke="black" points="1205,-298 1205,-350 1331,-350 1331,-298 1205,-298"/>
</g>
<g id="clust60" class="cluster">
<title>cluster_ProductsModule_providers</title>
<polygon fill="none" stroke="black" points="1186,-154 1186,-206 1350,-206 1350,-154 1186,-154"/>
</g>
<g id="clust73" class="cluster">
<title>cluster_UsersModule</title>
<polygon fill="none" stroke="black" stroke-dasharray="1,5" points="1678,-70 1678,-138 3191,-138 3191,-70 1678,-70"/>
</g>
<g id="clust76" class="cluster">
<title>cluster_UsersModule_exports</title>
<polygon fill="none" stroke="black" points="3073,-78 3073,-130 3183,-130 3183,-78 3073,-78"/>
</g>
<g id="clust78" class="cluster">
<title>cluster_UsersModule_providers</title>
<polygon fill="none" stroke="black" points="1686,-78 1686,-130 3065,-130 3065,-78 1686,-78"/>
</g>
<g id="clust61" class="cluster">
<title>cluster_TagsModule</title>
<polygon fill="none" stroke="black" stroke-dasharray="1,5" points="3162,-214 3162,-282 3424,-282 3424,-214 3162,-214"/>
</g>
<g id="clust64" class="cluster">
<title>cluster_TagsModule_exports</title>
<polygon fill="none" stroke="black" points="3312,-222 3312,-274 3416,-274 3416,-222 3312,-222"/>
</g>
<g id="clust66" class="cluster">
<title>cluster_TagsModule_providers</title>
<polygon fill="none" stroke="black" points="3170,-222 3170,-274 3304,-274 3304,-222 3170,-222"/>
</g>
<g id="clust67" class="cluster">
<title>cluster_UploadsModule</title>
<polygon fill="none" stroke="black" stroke-dasharray="1,5" points="2366,-214 2366,-350 2762,-350 2762,-214 2366,-214"/>
</g>
<g id="clust72" class="cluster">
<title>cluster_UploadsModule_providers</title>
<polygon fill="none" stroke="black" points="2374,-222 2374,-274 2754,-274 2754,-222 2374,-222"/>
</g>
<g id="clust13" class="cluster">
<title>cluster_CatalogModule</title>
<polygon fill="none" stroke="black" stroke-dasharray="1,5" points="2186,-214 2186,-350 2358,-350 2358,-214 2186,-214"/>
</g>
<g id="clust18" class="cluster">
<title>cluster_CatalogModule_providers</title>
<polygon fill="none" stroke="black" points="2194,-222 2194,-274 2350,-274 2350,-222 2194,-222"/>
</g>
<g id="clust7" class="cluster">
<title>cluster_AuthModule</title>
<polygon fill="none" stroke="black" stroke-dasharray="1,5" points="241,-70 241,-138 1670,-138 1670,-70 241,-70"/>
</g>
<g id="clust12" class="cluster">
<title>cluster_AuthModule_providers</title>
<polygon fill="none" stroke="black" points="643,-78 643,-130 1662,-130 1662,-78 643,-78"/>
</g>
<g id="clust10" class="cluster">
<title>cluster_AuthModule_exports</title>
<polygon fill="none" stroke="black" points="249,-78 249,-130 635,-130 635,-78 249,-78"/>
</g>
<g id="clust1" class="cluster">
<title>cluster_AppModule</title>
<polygon fill="none" stroke="black" stroke-dasharray="1,5" points="626,-290 626,-426 1170,-426 1170,-290 626,-290"/>
</g>
<g id="clust6" class="cluster">
<title>cluster_AppModule_providers</title>
<polygon fill="none" stroke="black" points="1032,-298 1032,-350 1162,-350 1162,-298 1032,-298"/>
</g>
<g id="clust3" class="cluster">
<title>cluster_AppModule_imports</title>
<polygon fill="none" stroke="black" points="634,-298 634,-350 1024,-350 1024,-298 634,-298"/>
</g>
<g id="clust25" class="cluster">
<title>cluster_CommentsModule</title>
<polygon fill="none" stroke="black" stroke-dasharray="1,5" points="276,-366 276,-434 618,-434 618,-366 276,-366"/>
</g>
<g id="clust28" class="cluster">
<title>cluster_CommentsModule_exports</title>
<polygon fill="none" stroke="black" points="472,-374 472,-426 610,-426 610,-374 472,-374"/>
</g>
<g id="clust30" class="cluster">
<title>cluster_CommentsModule_providers</title>
<polygon fill="none" stroke="black" points="284,-374 284,-426 464,-426 464,-374 284,-374"/>
</g>
<g id="clust31" class="cluster">
<title>cluster_MailModule</title>
<polygon fill="none" stroke="black" stroke-dasharray="1,5" points="8,-366 8,-434 268,-434 268,-366 8,-366"/>
</g>
<g id="clust34" class="cluster">
<title>cluster_MailModule_exports</title>
<polygon fill="none" stroke="black" points="156,-374 156,-426 260,-426 260,-374 156,-374"/>
</g>
<g id="clust36" class="cluster">
<title>cluster_MailModule_providers</title>
<polygon fill="none" stroke="black" points="16,-374 16,-426 148,-426 148,-374 16,-374"/>
</g>
<g id="clust37" class="cluster">
<title>cluster_MetaOptionsModule</title>
<polygon fill="none" stroke="black" stroke-dasharray="1,5" points="706,-214 706,-282 918,-282 918,-214 706,-214"/>
</g>
<g id="clust42" class="cluster">
<title>cluster_MetaOptionsModule_providers</title>
<polygon fill="none" stroke="black" points="714,-222 714,-274 910,-274 910,-222 714,-222"/>
</g>
<g id="clust43" class="cluster">
<title>cluster_PaginationModule</title>
<polygon fill="none" stroke="black" stroke-dasharray="1,5" points="2798,-214 2798,-282 3154,-282 3154,-214 2798,-214"/>
</g>
<g id="clust46" class="cluster">
<title>cluster_PaginationModule_exports</title>
<polygon fill="none" stroke="black" points="3002,-222 3002,-274 3146,-274 3146,-222 3002,-222"/>
</g>
<g id="clust48" class="cluster">
<title>cluster_PaginationModule_providers</title>
<polygon fill="none" stroke="black" points="2806,-222 2806,-274 2994,-274 2994,-222 2806,-222"/>
</g>
<!-- AuthModule -->
<g id="node1" class="node">
<title>AuthModule</title>
<polygon fill="#8dd3c7" stroke="black" points="1453.55,-198 1450.55,-202 1429.55,-202 1426.55,-198 1366.45,-198 1366.45,-162 1453.55,-162 1453.55,-198"/>
<text text-anchor="middle" x="1410" y="-175.8" font-family="Times,serif" font-size="14.00">AuthModule</text>
</g>
<!-- CatalogModule -->
<g id="node2" class="node">
<title>CatalogModule</title>
<polygon fill="#8dd3c7" stroke="black" points="2297.6,-342 2294.6,-346 2273.6,-346 2270.6,-342 2194.4,-342 2194.4,-306 2297.6,-306 2297.6,-342"/>
<text text-anchor="middle" x="2246" y="-319.8" font-family="Times,serif" font-size="14.00">CatalogModule</text>
</g>
<!-- AuthModule&#45;&gt;CatalogModule -->
<g id="edge20" class="edge">
<title>AuthModule&#45;&gt;CatalogModule</title>
<path fill="none" stroke="black" d="M1436.26,-198.24C1436.26,-236.99 1436.26,-324 1436.26,-324 1436.26,-324 2184.42,-324 2184.42,-324"/>
<polygon fill="black" stroke="black" points="2184.42,-327.5 2194.42,-324 2184.42,-320.5 2184.42,-327.5"/>
</g>
<!-- CommentsModule -->
<g id="node3" class="node">
<title>CommentsModule</title>
<polygon fill="#8dd3c7" stroke="black" points="1016.22,-342 1013.22,-346 992.22,-346 989.22,-342 895.78,-342 895.78,-306 1016.22,-306 1016.22,-342"/>
<text text-anchor="middle" x="956" y="-319.8" font-family="Times,serif" font-size="14.00">CommentsModule</text>
</g>
<!-- AuthModule&#45;&gt;CommentsModule -->
<g id="edge22" class="edge">
<title>AuthModule&#45;&gt;CommentsModule</title>
<path fill="none" stroke="black" d="M1383.74,-198.06C1383.74,-209.44 1383.74,-222 1383.74,-222 1383.74,-222 947.35,-222 947.35,-222 947.35,-222 947.35,-295.76 947.35,-295.76"/>
<polygon fill="black" stroke="black" points="943.85,-295.76 947.35,-305.76 950.85,-295.76 943.85,-295.76"/>
</g>
<!-- AppModule -->
<g id="node11" class="node">
<title>AppModule</title>
<polygon fill="#8dd3c7" stroke="black" points="1161.66,-418 1158.66,-422 1137.66,-422 1134.66,-418 1078.34,-418 1078.34,-382 1161.66,-382 1161.66,-418"/>
<text text-anchor="middle" x="1120" y="-395.8" font-family="Times,serif" font-size="14.00">AppModule</text>
</g>
<!-- AuthModule&#45;&gt;AppModule -->
<g id="edge1" class="edge">
<title>AuthModule&#45;&gt;AppModule</title>
<path fill="none" stroke="black" d="M1418.75,-198.01C1418.75,-248.37 1418.75,-387 1418.75,-387 1418.75,-387 1171.86,-387 1171.86,-387"/>
<polygon fill="black" stroke="black" points="1171.86,-383.5 1161.86,-387 1171.86,-390.5 1171.86,-383.5"/>
</g>
<!-- AccessTokenGuard  -->
<g id="node13" class="node">
<title>AccessTokenGuard </title>
<polygon fill="#fb8072" stroke="black" points="626.89,-122 497.11,-122 497.11,-86 626.89,-86 626.89,-122"/>
<text text-anchor="middle" x="562" y="-99.8" font-family="Times,serif" font-size="14.00">AccessTokenGuard </text>
</g>
<!-- AuthModule&#45;&gt;AccessTokenGuard  -->
<g id="edge12" class="edge">
<title>AuthModule&#45;&gt;AccessTokenGuard </title>
<path fill="none" stroke="black" stroke-dasharray="5,2" d="M1395.41,-161.86C1395.41,-155.54 1395.41,-150 1395.41,-150 1395.41,-150 614.51,-150 614.51,-150 614.51,-150 614.51,-132.18 614.51,-132.18"/>
<polygon fill="black" stroke="black" points="618.01,-132.18 614.51,-122.18 611.01,-132.18 618.01,-132.18"/>
</g>
<!-- AuthService  -->
<g id="node14" class="node">
<title>AuthService </title>
<polygon fill="#fb8072" stroke="black" points="478.98,-122 389.02,-122 389.02,-86 478.98,-86 478.98,-122"/>
<text text-anchor="middle" x="434" y="-99.8" font-family="Times,serif" font-size="14.00">AuthService </text>
</g>
<!-- AuthModule&#45;&gt;AuthService  -->
<g id="edge13" class="edge">
<title>AuthModule&#45;&gt;AuthService </title>
<path fill="none" stroke="black" stroke-dasharray="5,2" d="M1385.68,-161.84C1385.68,-156.96 1385.68,-153 1385.68,-153 1385.68,-153 467.29,-153 467.29,-153 467.29,-153 467.29,-132.25 467.29,-132.25"/>
<polygon fill="black" stroke="black" points="470.79,-132.25 467.29,-122.25 463.79,-132.25 470.79,-132.25"/>
</g>
<!-- HashingProvider  -->
<g id="node15" class="node">
<title>HashingProvider </title>
<polygon fill="#fb8072" stroke="black" points="371.37,-122 256.63,-122 256.63,-86 371.37,-86 371.37,-122"/>
<text text-anchor="middle" x="314" y="-99.8" font-family="Times,serif" font-size="14.00">HashingProvider </text>
</g>
<!-- AuthModule&#45;&gt;HashingProvider  -->
<g id="edge14" class="edge">
<title>AuthModule&#45;&gt;HashingProvider </title>
<path fill="none" stroke="black" stroke-dasharray="5,2" d="M1375.95,-161.81C1375.95,-158.46 1375.95,-156 1375.95,-156 1375.95,-156 331.67,-156 331.67,-156 331.67,-156 331.67,-132.19 331.67,-132.19"/>
<polygon fill="black" stroke="black" points="335.17,-132.19 331.67,-122.19 328.17,-132.19 335.17,-132.19"/>
</g>
<!-- ProductsModule -->
<g id="node22" class="node">
<title>ProductsModule</title>
<polygon fill="#8dd3c7" stroke="black" points="1322.04,-266 1319.04,-270 1298.04,-270 1295.04,-266 1213.96,-266 1213.96,-230 1322.04,-230 1322.04,-266"/>
<text text-anchor="middle" x="1268" y="-243.8" font-family="Times,serif" font-size="14.00">ProductsModule</text>
</g>
<!-- AuthModule&#45;&gt;ProductsModule -->
<g id="edge37" class="edge">
<title>AuthModule&#45;&gt;ProductsModule</title>
<path fill="none" stroke="black" d="M1401.25,-198.29C1401.25,-220.21 1401.25,-254 1401.25,-254 1401.25,-254 1332.2,-254 1332.2,-254"/>
<polygon fill="black" stroke="black" points="1332.2,-250.5 1322.2,-254 1332.2,-257.5 1332.2,-250.5"/>
</g>
<!-- CatalogModule&#45;&gt;AppModule -->
<g id="edge2" class="edge">
<title>CatalogModule&#45;&gt;AppModule</title>
<path fill="none" stroke="black" d="M2246,-342.03C2246,-366.98 2246,-409 2246,-409 2246,-409 1171.75,-409 1171.75,-409"/>
<polygon fill="black" stroke="black" points="1171.75,-405.5 1161.75,-409 1171.75,-412.5 1171.75,-405.5"/>
</g>
<!-- CommentsModule&#45;&gt;AppModule -->
<g id="edge3" class="edge">
<title>CommentsModule&#45;&gt;AppModule</title>
<path fill="none" stroke="black" d="M986.05,-342.04C986.05,-363.66 986.05,-397 986.05,-397 986.05,-397 1067.99,-397 1067.99,-397"/>
<polygon fill="black" stroke="black" points="1067.99,-400.5 1077.99,-397 1067.99,-393.5 1067.99,-400.5"/>
</g>
<!-- CommentsService  -->
<g id="node23" class="node">
<title>CommentsService </title>
<polygon fill="#fb8072" stroke="black" points="602.15,-418 479.85,-418 479.85,-382 602.15,-382 602.15,-418"/>
<text text-anchor="middle" x="541" y="-395.8" font-family="Times,serif" font-size="14.00">CommentsService </text>
</g>
<!-- CommentsModule&#45;&gt;CommentsService  -->
<g id="edge25" class="edge">
<title>CommentsModule&#45;&gt;CommentsService </title>
<path fill="none" stroke="black" stroke-dasharray="5,2" d="M956,-342.03C956,-361.58 956,-390 956,-390 956,-390 612.23,-390 612.23,-390"/>
<polygon fill="black" stroke="black" points="612.23,-386.5 602.23,-390 612.23,-393.5 612.23,-386.5"/>
</g>
<!-- MailModule -->
<g id="node4" class="node">
<title>MailModule</title>
<polygon fill="#8dd3c7" stroke="black" points="727.99,-342 724.99,-346 703.99,-346 700.99,-342 642.01,-342 642.01,-306 727.99,-306 727.99,-342"/>
<text text-anchor="middle" x="685" y="-319.8" font-family="Times,serif" font-size="14.00">MailModule</text>
</g>
<!-- MailModule&#45;&gt;AppModule -->
<g id="edge4" class="edge">
<title>MailModule&#45;&gt;AppModule</title>
<path fill="none" stroke="black" d="M685,-342.03C685,-367.51 685,-411 685,-411 685,-411 1068.29,-411 1068.29,-411"/>
<polygon fill="black" stroke="black" points="1068.29,-414.5 1078.29,-411 1068.29,-407.5 1068.29,-414.5"/>
</g>
<!-- MailService  -->
<g id="node25" class="node">
<title>MailService </title>
<polygon fill="#fb8072" stroke="black" points="251.92,-418 164.08,-418 164.08,-382 251.92,-382 251.92,-418"/>
<text text-anchor="middle" x="208" y="-395.8" font-family="Times,serif" font-size="14.00">MailService </text>
</g>
<!-- MailModule&#45;&gt;MailService  -->
<g id="edge27" class="edge">
<title>MailModule&#45;&gt;MailService </title>
<path fill="none" stroke="black" stroke-dasharray="5,2" d="M641.83,-330C524.41,-330 208,-330 208,-330 208,-330 208,-371.97 208,-371.97"/>
<polygon fill="black" stroke="black" points="204.5,-371.97 208,-381.97 211.5,-371.97 204.5,-371.97"/>
</g>
<!-- MetaOptionsModule -->
<g id="node5" class="node">
<title>MetaOptionsModule</title>
<polygon fill="#8dd3c7" stroke="black" points="878.15,-342 875.15,-346 854.15,-346 851.15,-342 745.85,-342 745.85,-306 878.15,-306 878.15,-342"/>
<text text-anchor="middle" x="812" y="-319.8" font-family="Times,serif" font-size="14.00">MetaOptionsModule</text>
</g>
<!-- MetaOptionsModule&#45;&gt;AppModule -->
<g id="edge5" class="edge">
<title>MetaOptionsModule&#45;&gt;AppModule</title>
<path fill="none" stroke="black" d="M812,-342.15C812,-365.76 812,-404 812,-404 812,-404 1068.14,-404 1068.14,-404"/>
<polygon fill="black" stroke="black" points="1068.14,-407.5 1078.14,-404 1068.14,-400.5 1068.14,-407.5"/>
</g>
<!-- PaginationModule -->
<g id="node6" class="node">
<title>PaginationModule</title>
<polygon fill="#8dd3c7" stroke="black" points="2057.93,-198 2054.93,-202 2033.93,-202 2030.93,-198 1938.07,-198 1938.07,-162 2057.93,-162 2057.93,-198"/>
<text text-anchor="middle" x="1998" y="-175.8" font-family="Times,serif" font-size="14.00">PaginationModule</text>
</g>
<!-- PostsModule -->
<g id="node7" class="node">
<title>PostsModule</title>
<polygon fill="#8dd3c7" stroke="black" points="1763.61,-266 1760.61,-270 1739.61,-270 1736.61,-266 1674.39,-266 1674.39,-230 1763.61,-230 1763.61,-266"/>
<text text-anchor="middle" x="1719" y="-243.8" font-family="Times,serif" font-size="14.00">PostsModule</text>
</g>
<!-- PaginationModule&#45;&gt;PostsModule -->
<g id="edge32" class="edge">
<title>PaginationModule&#45;&gt;PostsModule</title>
<path fill="none" stroke="black" d="M2009.94,-198.22C2009.94,-218.37 2009.94,-248 2009.94,-248 2009.94,-248 1773.82,-248 1773.82,-248"/>
<polygon fill="black" stroke="black" points="1773.82,-244.5 1763.82,-248 1773.82,-251.5 1773.82,-244.5"/>
</g>
<!-- PaginationModule&#45;&gt;AppModule -->
<g id="edge6" class="edge">
<title>PaginationModule&#45;&gt;AppModule</title>
<path fill="none" stroke="black" d="M2033.83,-198C2033.83,-250.55 2033.83,-400 2033.83,-400 2033.83,-400 1171.94,-400 1171.94,-400"/>
<polygon fill="black" stroke="black" points="1171.94,-396.5 1161.94,-400 1171.94,-403.5 1171.94,-396.5"/>
</g>
<!-- PaginationProvider  -->
<g id="node28" class="node">
<title>PaginationProvider </title>
<polygon fill="#fb8072" stroke="black" points="3137.59,-266 3010.41,-266 3010.41,-230 3137.59,-230 3137.59,-266"/>
<text text-anchor="middle" x="3074" y="-243.8" font-family="Times,serif" font-size="14.00">PaginationProvider </text>
</g>
<!-- PaginationModule&#45;&gt;PaginationProvider  -->
<g id="edge30" class="edge">
<title>PaginationModule&#45;&gt;PaginationProvider </title>
<path fill="none" stroke="black" stroke-dasharray="5,2" d="M1962.17,-198.06C1962.17,-202.49 1962.17,-206 1962.17,-206 1962.17,-206 3033.67,-206 3033.67,-206 3033.67,-206 3033.67,-219.94 3033.67,-219.94"/>
<polygon fill="black" stroke="black" points="3030.17,-219.94 3033.67,-229.94 3037.17,-219.94 3030.17,-219.94"/>
</g>
<!-- PostsModule&#45;&gt;CommentsModule -->
<g id="edge23" class="edge">
<title>PostsModule&#45;&gt;CommentsModule</title>
<path fill="none" stroke="black" d="M1704.15,-266.11C1704.15,-275.9 1704.15,-286 1704.15,-286 1704.15,-286 992.28,-286 992.28,-286 992.28,-286 992.28,-295.89 992.28,-295.89"/>
<polygon fill="black" stroke="black" points="988.78,-295.89 992.28,-305.89 995.78,-295.89 988.78,-295.89"/>
</g>
<!-- PostsModule&#45;&gt;AppModule -->
<g id="edge7" class="edge">
<title>PostsModule&#45;&gt;AppModule</title>
<path fill="none" stroke="black" d="M1733.85,-266.11C1733.85,-304.59 1733.85,-391 1733.85,-391 1733.85,-391 1171.71,-391 1171.71,-391"/>
<polygon fill="black" stroke="black" points="1171.71,-387.5 1161.71,-391 1171.71,-394.5 1171.71,-387.5"/>
</g>
<!-- TagsModule -->
<g id="node8" class="node">
<title>TagsModule</title>
<polygon fill="#8dd3c7" stroke="black" points="2162.26,-198 2159.26,-202 2138.26,-202 2135.26,-198 2075.74,-198 2075.74,-162 2162.26,-162 2162.26,-198"/>
<text text-anchor="middle" x="2119" y="-175.8" font-family="Times,serif" font-size="14.00">TagsModule</text>
</g>
<!-- TagsModule&#45;&gt;PostsModule -->
<g id="edge33" class="edge">
<title>TagsModule&#45;&gt;PostsModule</title>
<path fill="none" stroke="black" d="M2104.54,-198.25C2104.54,-221.02 2104.54,-257 2104.54,-257 2104.54,-257 1773.6,-257 1773.6,-257"/>
<polygon fill="black" stroke="black" points="1773.6,-253.5 1763.6,-257 1773.6,-260.5 1773.6,-253.5"/>
</g>
<!-- TagsModule&#45;&gt;AppModule -->
<g id="edge8" class="edge">
<title>TagsModule&#45;&gt;AppModule</title>
<path fill="none" stroke="black" d="M2133.46,-198.03C2133.46,-251.42 2133.46,-405 2133.46,-405 2133.46,-405 1171.94,-405 1171.94,-405"/>
<polygon fill="black" stroke="black" points="1171.94,-401.5 1161.94,-405 1171.94,-408.5 1171.94,-401.5"/>
</g>
<!-- TagsService  -->
<g id="node34" class="node">
<title>TagsService </title>
<polygon fill="#fb8072" stroke="black" points="3408.19,-266 3319.81,-266 3319.81,-230 3408.19,-230 3408.19,-266"/>
<text text-anchor="middle" x="3364" y="-243.8" font-family="Times,serif" font-size="14.00">TagsService </text>
</g>
<!-- TagsModule&#45;&gt;TagsService  -->
<g id="edge40" class="edge">
<title>TagsModule&#45;&gt;TagsService </title>
<path fill="none" stroke="black" stroke-dasharray="5,2" d="M2162.58,-174C2382.94,-174 3364,-174 3364,-174 3364,-174 3364,-219.71 3364,-219.71"/>
<polygon fill="black" stroke="black" points="3360.5,-219.71 3364,-229.71 3367.5,-219.71 3360.5,-219.71"/>
</g>
<!-- UploadsModule -->
<g id="node9" class="node">
<title>UploadsModule</title>
<polygon fill="#8dd3c7" stroke="black" points="2507.21,-342 2504.21,-346 2483.21,-346 2480.21,-342 2400.79,-342 2400.79,-306 2507.21,-306 2507.21,-342"/>
<text text-anchor="middle" x="2454" y="-319.8" font-family="Times,serif" font-size="14.00">UploadsModule</text>
</g>
<!-- UploadsModule&#45;&gt;AppModule -->
<g id="edge9" class="edge">
<title>UploadsModule&#45;&gt;AppModule</title>
<path fill="none" stroke="black" d="M2454,-342.21C2454,-368.51 2454,-414 2454,-414 2454,-414 1171.76,-414 1171.76,-414"/>
<polygon fill="black" stroke="black" points="1171.76,-410.5 1161.76,-414 1171.76,-417.5 1171.76,-410.5"/>
</g>
<!-- UsersModule -->
<g id="node10" class="node">
<title>UsersModule</title>
<polygon fill="#8dd3c7" stroke="black" points="1920.92,-198 1917.92,-202 1896.92,-202 1893.92,-198 1829.08,-198 1829.08,-162 1920.92,-162 1920.92,-198"/>
<text text-anchor="middle" x="1875" y="-175.8" font-family="Times,serif" font-size="14.00">UsersModule</text>
</g>
<!-- UsersModule&#45;&gt;PostsModule -->
<g id="edge34" class="edge">
<title>UsersModule&#45;&gt;PostsModule</title>
<path fill="none" stroke="black" d="M1859.76,-198.02C1859.76,-215.37 1859.76,-239 1859.76,-239 1859.76,-239 1773.93,-239 1773.93,-239"/>
<polygon fill="black" stroke="black" points="1773.93,-235.5 1763.93,-239 1773.93,-242.5 1773.93,-235.5"/>
</g>
<!-- UsersModule&#45;&gt;AppModule -->
<g id="edge10" class="edge">
<title>UsersModule&#45;&gt;AppModule</title>
<path fill="none" stroke="black" d="M1890.24,-198.04C1890.24,-249.96 1890.24,-396 1890.24,-396 1890.24,-396 1171.68,-396 1171.68,-396"/>
<polygon fill="black" stroke="black" points="1171.68,-392.5 1161.68,-396 1171.68,-399.5 1171.68,-392.5"/>
</g>
<!-- UsersService  -->
<g id="node38" class="node">
<title>UsersService </title>
<polygon fill="#fb8072" stroke="black" points="3174.85,-122 3081.15,-122 3081.15,-86 3174.85,-86 3174.85,-122"/>
<text text-anchor="middle" x="3128" y="-99.8" font-family="Times,serif" font-size="14.00">UsersService </text>
</g>
<!-- UsersModule&#45;&gt;UsersService  -->
<g id="edge44" class="edge">
<title>UsersModule&#45;&gt;UsersService </title>
<path fill="none" stroke="black" stroke-dasharray="5,2" d="M1860.2,-161.94C1860.2,-150.56 1860.2,-138 1860.2,-138 1860.2,-138 3109.56,-138 3109.56,-138 3109.56,-138 3109.56,-132.19 3109.56,-132.19"/>
<polygon fill="black" stroke="black" points="3113.06,-132.19 3109.56,-122.19 3106.06,-132.19 3113.06,-132.19"/>
</g>
<!-- AppService -->
<g id="node12" class="node">
<title>AppService</title>
<ellipse fill="#fdb462" stroke="black" cx="1097" cy="-324" rx="56.74" ry="18"/>
<text text-anchor="middle" x="1097" y="-319.8" font-family="Times,serif" font-size="14.00">AppService</text>
</g>
<!-- AppService&#45;&gt;AppModule -->
<g id="edge11" class="edge">
<title>AppService&#45;&gt;AppModule</title>
<path fill="none" stroke="black" d="M1115.9,-341.25C1115.9,-341.25 1115.9,-371.76 1115.9,-371.76"/>
<polygon fill="black" stroke="black" points="1112.4,-371.76 1115.9,-381.76 1119.4,-371.76 1112.4,-371.76"/>
</g>
<!-- AuthService -->
<g id="node16" class="node">
<title>AuthService</title>
<ellipse fill="#fdb462" stroke="black" cx="1595" cy="-104" rx="59.11" ry="18"/>
<text text-anchor="middle" x="1595" y="-99.8" font-family="Times,serif" font-size="14.00">AuthService</text>
</g>
<!-- AuthService&#45;&gt;AuthModule -->
<g id="edge15" class="edge">
<title>AuthService&#45;&gt;AuthModule</title>
<path fill="none" stroke="black" d="M1575.04,-121.1C1575.04,-137.25 1575.04,-159 1575.04,-159 1575.04,-159 1444.05,-159 1444.05,-159 1444.05,-159 1444.05,-159.29 1444.05,-159.29"/>
<polygon fill="black" stroke="black" points="1440.55,-151.92 1444.05,-161.92 1447.55,-151.92 1440.55,-151.92"/>
</g>
<!-- GenerateTokensProvider -->
<g id="node17" class="node">
<title>GenerateTokensProvider</title>
<ellipse fill="#fdb462" stroke="black" cx="1410" cy="-104" rx="107.63" ry="18"/>
<text text-anchor="middle" x="1410" y="-99.8" font-family="Times,serif" font-size="14.00">GenerateTokensProvider</text>
</g>
<!-- GenerateTokensProvider&#45;&gt;AuthModule -->
<g id="edge16" class="edge">
<title>GenerateTokensProvider&#45;&gt;AuthModule</title>
<path fill="none" stroke="black" d="M1434.32,-121.63C1434.32,-121.63 1434.32,-151.94 1434.32,-151.94"/>
<polygon fill="black" stroke="black" points="1430.82,-151.94 1434.32,-161.94 1437.82,-151.94 1430.82,-151.94"/>
</g>
<!-- GoogleAuthenticationService -->
<g id="node18" class="node">
<title>GoogleAuthenticationService</title>
<ellipse fill="#fdb462" stroke="black" cx="1159" cy="-104" rx="125.62" ry="18"/>
<text text-anchor="middle" x="1159" y="-99.8" font-family="Times,serif" font-size="14.00">GoogleAuthenticationService</text>
</g>
<!-- GoogleAuthenticationService&#45;&gt;AuthModule -->
<g id="edge17" class="edge">
<title>GoogleAuthenticationService&#45;&gt;AuthModule</title>
<path fill="none" stroke="black" d="M1239.51,-118.2C1239.51,-128.63 1239.51,-141 1239.51,-141 1239.51,-141 1424.59,-141 1424.59,-141 1424.59,-141 1424.59,-151.87 1424.59,-151.87"/>
<polygon fill="black" stroke="black" points="1421.09,-151.87 1424.59,-161.87 1428.09,-151.87 1421.09,-151.87"/>
</g>
<!-- RefreshTokensProvider -->
<g id="node19" class="node">
<title>RefreshTokensProvider</title>
<ellipse fill="#fdb462" stroke="black" cx="912" cy="-104" rx="102.99" ry="18"/>
<text text-anchor="middle" x="912" y="-99.8" font-family="Times,serif" font-size="14.00">RefreshTokensProvider</text>
</g>
<!-- RefreshTokensProvider&#45;&gt;AuthModule -->
<g id="edge18" class="edge">
<title>RefreshTokensProvider&#45;&gt;AuthModule</title>
<path fill="none" stroke="black" d="M924.88,-122.13C924.88,-132.71 924.88,-144 924.88,-144 924.88,-144 1414.86,-144 1414.86,-144 1414.86,-144 1414.86,-151.58 1414.86,-151.58"/>
<polygon fill="black" stroke="black" points="1411.36,-151.58 1414.86,-161.58 1418.36,-151.58 1411.36,-151.58"/>
</g>
<!-- SignInProvider -->
<g id="node20" class="node">
<title>SignInProvider</title>
<ellipse fill="#fdb462" stroke="black" cx="721" cy="-104" rx="70.08" ry="18"/>
<text text-anchor="middle" x="721" y="-99.8" font-family="Times,serif" font-size="14.00">SignInProvider</text>
</g>
<!-- SignInProvider&#45;&gt;AuthModule -->
<g id="edge19" class="edge">
<title>SignInProvider&#45;&gt;AuthModule</title>
<path fill="none" stroke="black" d="M756.31,-120.01C756.31,-132.24 756.31,-147 756.31,-147 756.31,-147 1405.14,-147 1405.14,-147 1405.14,-147 1405.14,-151.96 1405.14,-151.96"/>
<polygon fill="black" stroke="black" points="1401.64,-151.96 1405.14,-161.96 1408.64,-151.96 1401.64,-151.96"/>
</g>
<!-- CatalogService -->
<g id="node21" class="node">
<title>CatalogService</title>
<ellipse fill="#fdb462" stroke="black" cx="2272" cy="-248" rx="70.06" ry="18"/>
<text text-anchor="middle" x="2272" y="-243.8" font-family="Times,serif" font-size="14.00">CatalogService</text>
</g>
<!-- CatalogService&#45;&gt;CatalogModule -->
<g id="edge21" class="edge">
<title>CatalogService&#45;&gt;CatalogModule</title>
<path fill="none" stroke="black" d="M2249.76,-265.25C2249.76,-265.25 2249.76,-295.76 2249.76,-295.76"/>
<polygon fill="black" stroke="black" points="2246.26,-295.76 2249.76,-305.76 2253.26,-295.76 2246.26,-295.76"/>
</g>
<!-- ProductsModule&#45;&gt;CommentsModule -->
<g id="edge24" class="edge">
<title>ProductsModule&#45;&gt;CommentsModule</title>
<path fill="none" stroke="black" d="M1213.65,-248C1127.65,-248 969.81,-248 969.81,-248 969.81,-248 969.81,-295.99 969.81,-295.99"/>
<polygon fill="black" stroke="black" points="966.31,-295.99 969.81,-305.99 973.31,-295.99 966.31,-295.99"/>
</g>
<!-- ProductsService  -->
<g id="node32" class="node">
<title>ProductsService </title>
<polygon fill="#fb8072" stroke="black" points="1323.47,-342 1212.53,-342 1212.53,-306 1323.47,-306 1323.47,-342"/>
<text text-anchor="middle" x="1268" y="-319.8" font-family="Times,serif" font-size="14.00">ProductsService </text>
</g>
<!-- ProductsModule&#45;&gt;ProductsService  -->
<g id="edge38" class="edge">
<title>ProductsModule&#45;&gt;ProductsService </title>
<path fill="none" stroke="black" stroke-dasharray="5,2" d="M1268,-266.01C1268,-266.01 1268,-295.85 1268,-295.85"/>
<polygon fill="black" stroke="black" points="1264.5,-295.85 1268,-305.85 1271.5,-295.85 1264.5,-295.85"/>
</g>
<!-- CommentsService -->
<g id="node24" class="node">
<title>CommentsService</title>
<ellipse fill="#fdb462" stroke="black" cx="374" cy="-400" rx="81.68" ry="18"/>
<text text-anchor="middle" x="374" y="-395.8" font-family="Times,serif" font-size="14.00">CommentsService</text>
</g>
<!-- CommentsService&#45;&gt;CommentsModule -->
<g id="edge26" class="edge">
<title>CommentsService&#45;&gt;CommentsModule</title>
<path fill="none" stroke="black" d="M422.55,-385.42C422.55,-374.7 422.55,-362 422.55,-362 422.55,-362 925.95,-362 925.95,-362 925.95,-362 925.95,-352.11 925.95,-352.11"/>
<polygon fill="black" stroke="black" points="929.45,-352.11 925.95,-342.11 922.45,-352.11 929.45,-352.11"/>
</g>
<!-- MailService -->
<g id="node26" class="node">
<title>MailService</title>
<ellipse fill="#fdb462" stroke="black" cx="82" cy="-400" rx="58.46" ry="18"/>
<text text-anchor="middle" x="82" y="-395.8" font-family="Times,serif" font-size="14.00">MailService</text>
</g>
<!-- MailService&#45;&gt;MailModule -->
<g id="edge28" class="edge">
<title>MailService&#45;&gt;MailModule</title>
<path fill="none" stroke="black" d="M82,-381.8C82,-357.64 82,-318 82,-318 82,-318 631.63,-318 631.63,-318"/>
<polygon fill="black" stroke="black" points="631.63,-321.5 641.63,-318 631.63,-314.5 631.63,-321.5"/>
</g>
<!-- MetaOptionsService -->
<g id="node27" class="node">
<title>MetaOptionsService</title>
<ellipse fill="#fdb462" stroke="black" cx="812" cy="-248" rx="90.33" ry="18"/>
<text text-anchor="middle" x="812" y="-243.8" font-family="Times,serif" font-size="14.00">MetaOptionsService</text>
</g>
<!-- MetaOptionsService&#45;&gt;MetaOptionsModule -->
<g id="edge29" class="edge">
<title>MetaOptionsService&#45;&gt;MetaOptionsModule</title>
<path fill="none" stroke="black" d="M812,-266.01C812,-266.01 812,-295.85 812,-295.85"/>
<polygon fill="black" stroke="black" points="808.5,-295.85 812,-305.85 815.5,-295.85 808.5,-295.85"/>
</g>
<!-- PaginationProvider -->
<g id="node29" class="node">
<title>PaginationProvider</title>
<ellipse fill="#fdb462" stroke="black" cx="2900" cy="-248" rx="85.69" ry="18"/>
<text text-anchor="middle" x="2900" y="-243.8" font-family="Times,serif" font-size="14.00">PaginationProvider</text>
</g>
<!-- PaginationProvider&#45;&gt;PaginationModule -->
<g id="edge31" class="edge">
<title>PaginationProvider&#45;&gt;PaginationModule</title>
<path fill="none" stroke="black" d="M2819.63,-241.76C2819.63,-231.95 2819.63,-214 2819.63,-214 2819.63,-214 1986.06,-214 1986.06,-214 1986.06,-214 1986.06,-208.19 1986.06,-208.19"/>
<polygon fill="black" stroke="black" points="1989.56,-208.19 1986.06,-198.19 1982.56,-208.19 1989.56,-208.19"/>
</g>
<!-- CreatePostProvider -->
<g id="node30" class="node">
<title>CreatePostProvider</title>
<ellipse fill="#fdb462" stroke="black" cx="1719" cy="-180" rx="86.25" ry="18"/>
<text text-anchor="middle" x="1719" y="-175.8" font-family="Times,serif" font-size="14.00">CreatePostProvider</text>
</g>
<!-- CreatePostProvider&#45;&gt;PostsModule -->
<g id="edge35" class="edge">
<title>CreatePostProvider&#45;&gt;PostsModule</title>
<path fill="none" stroke="black" d="M1719,-198.22C1719,-198.22 1719,-219.73 1719,-219.73"/>
<polygon fill="black" stroke="black" points="1715.5,-219.73 1719,-229.73 1722.5,-219.73 1715.5,-219.73"/>
</g>
<!-- PostsService -->
<g id="node31" class="node">
<title>PostsService</title>
<ellipse fill="#fdb462" stroke="black" cx="1554" cy="-180" rx="60.27" ry="18"/>
<text text-anchor="middle" x="1554" y="-175.8" font-family="Times,serif" font-size="14.00">PostsService</text>
</g>
<!-- PostsService&#45;&gt;PostsModule -->
<g id="edge36" class="edge">
<title>PostsService&#45;&gt;PostsModule</title>
<path fill="none" stroke="black" d="M1554,-198.27C1554,-216.56 1554,-242 1554,-242 1554,-242 1664.35,-242 1664.35,-242"/>
<polygon fill="black" stroke="black" points="1664.35,-245.5 1674.35,-242 1664.35,-238.5 1664.35,-245.5"/>
</g>
<!-- ProductsService -->
<g id="node33" class="node">
<title>ProductsService</title>
<ellipse fill="#fdb462" stroke="black" cx="1268" cy="-180" rx="73.57" ry="18"/>
<text text-anchor="middle" x="1268" y="-175.8" font-family="Times,serif" font-size="14.00">ProductsService</text>
</g>
<!-- ProductsService&#45;&gt;ProductsModule -->
<g id="edge39" class="edge">
<title>ProductsService&#45;&gt;ProductsModule</title>
<path fill="none" stroke="black" d="M1268,-198.22C1268,-198.22 1268,-219.73 1268,-219.73"/>
<polygon fill="black" stroke="black" points="1264.5,-219.73 1268,-229.73 1271.5,-219.73 1264.5,-219.73"/>
</g>
<!-- TagsService -->
<g id="node35" class="node">
<title>TagsService</title>
<ellipse fill="#fdb462" stroke="black" cx="3237" cy="-248" rx="58.53" ry="18"/>
<text text-anchor="middle" x="3237" y="-243.8" font-family="Times,serif" font-size="14.00">TagsService</text>
</g>
<!-- TagsService&#45;&gt;TagsModule -->
<g id="edge41" class="edge">
<title>TagsService&#45;&gt;TagsModule</title>
<path fill="none" stroke="black" d="M3237,-229.73C3237,-211.44 3237,-186 3237,-186 3237,-186 2172.48,-186 2172.48,-186"/>
<polygon fill="black" stroke="black" points="2172.48,-182.5 2162.48,-186 2172.48,-189.5 2172.48,-182.5"/>
</g>
<!-- UploadToAwsProvider -->
<g id="node36" class="node">
<title>UploadToAwsProvider</title>
<ellipse fill="#fdb462" stroke="black" cx="2645" cy="-248" rx="101.29" ry="18"/>
<text text-anchor="middle" x="2645" y="-243.8" font-family="Times,serif" font-size="14.00">UploadToAwsProvider</text>
</g>
<!-- UploadToAwsProvider&#45;&gt;UploadsModule -->
<g id="edge42" class="edge">
<title>UploadToAwsProvider&#45;&gt;UploadsModule</title>
<path fill="none" stroke="black" d="M2645,-266.01C2645,-288.49 2645,-324 2645,-324 2645,-324 2517.2,-324 2517.2,-324"/>
<polygon fill="black" stroke="black" points="2517.2,-320.5 2507.2,-324 2517.2,-327.5 2517.2,-320.5"/>
</g>
<!-- UploadsService -->
<g id="node37" class="node">
<title>UploadsService</title>
<ellipse fill="#fdb462" stroke="black" cx="2454" cy="-248" rx="72.35" ry="18"/>
<text text-anchor="middle" x="2454" y="-243.8" font-family="Times,serif" font-size="14.00">UploadsService</text>
</g>
<!-- UploadsService&#45;&gt;UploadsModule -->
<g id="edge43" class="edge">
<title>UploadsService&#45;&gt;UploadsModule</title>
<path fill="none" stroke="black" d="M2454,-266.01C2454,-266.01 2454,-295.85 2454,-295.85"/>
<polygon fill="black" stroke="black" points="2450.5,-295.85 2454,-305.85 2457.5,-295.85 2450.5,-295.85"/>
</g>
<!-- CreateGoogleUserProvider -->
<g id="node39" class="node">
<title>CreateGoogleUserProvider</title>
<ellipse fill="#fdb462" stroke="black" cx="2941" cy="-104" rx="116.29" ry="18"/>
<text text-anchor="middle" x="2941" y="-99.8" font-family="Times,serif" font-size="14.00">CreateGoogleUserProvider</text>
</g>
<!-- CreateGoogleUserProvider&#45;&gt;UsersModule -->
<g id="edge45" class="edge">
<title>CreateGoogleUserProvider&#45;&gt;UsersModule</title>
<path fill="none" stroke="black" d="M2905.23,-121.31C2905.23,-128.41 2905.23,-135 2905.23,-135 2905.23,-135 1908.61,-135 1908.61,-135 1908.61,-135 1908.61,-151.96 1908.61,-151.96"/>
<polygon fill="black" stroke="black" points="1905.11,-151.96 1908.61,-161.96 1912.11,-151.96 1905.11,-151.96"/>
</g>
<!-- CreateUserProvider -->
<g id="node40" class="node">
<title>CreateUserProvider</title>
<ellipse fill="#fdb462" stroke="black" cx="2719" cy="-104" rx="87.94" ry="18"/>
<text text-anchor="middle" x="2719" y="-99.8" font-family="Times,serif" font-size="14.00">CreateUserProvider</text>
</g>
<!-- CreateUserProvider&#45;&gt;UsersModule -->
<g id="edge46" class="edge">
<title>CreateUserProvider&#45;&gt;UsersModule</title>
<path fill="none" stroke="black" d="M2688.71,-120.93C2688.71,-126.83 2688.71,-132 2688.71,-132 2688.71,-132 1896.51,-132 1896.51,-132 1896.51,-132 1896.51,-151.85 1896.51,-151.85"/>
<polygon fill="black" stroke="black" points="1893.01,-151.85 1896.51,-161.85 1900.01,-151.85 1893.01,-151.85"/>
</g>
<!-- FindOneByGoogleIdProvider -->
<g id="node41" class="node">
<title>FindOneByGoogleIdProvider</title>
<ellipse fill="#fdb462" stroke="black" cx="2487" cy="-104" rx="125.65" ry="18"/>
<text text-anchor="middle" x="2487" y="-99.8" font-family="Times,serif" font-size="14.00">FindOneByGoogleIdProvider</text>
</g>
<!-- FindOneByGoogleIdProvider&#45;&gt;UsersModule -->
<g id="edge47" class="edge">
<title>FindOneByGoogleIdProvider&#45;&gt;UsersModule</title>
<path fill="none" stroke="black" d="M2371.5,-111.37C2371.5,-118.74 2371.5,-129 2371.5,-129 2371.5,-129 1884.41,-129 1884.41,-129 1884.41,-129 1884.41,-151.88 1884.41,-151.88"/>
<polygon fill="black" stroke="black" points="1880.91,-151.88 1884.41,-161.88 1887.91,-151.88 1880.91,-151.88"/>
</g>
<!-- FindOneUserByEmailProvider -->
<g id="node42" class="node">
<title>FindOneUserByEmailProvider</title>
<ellipse fill="#fdb462" stroke="black" cx="2213" cy="-104" rx="130.8" ry="18"/>
<text text-anchor="middle" x="2213" y="-99.8" font-family="Times,serif" font-size="14.00">FindOneUserByEmailProvider</text>
</g>
<!-- FindOneUserByEmailProvider&#45;&gt;UsersModule -->
<g id="edge48" class="edge">
<title>FindOneUserByEmailProvider&#45;&gt;UsersModule</title>
<path fill="none" stroke="black" d="M2122.37,-117.05C2122.37,-121.79 2122.37,-126 2122.37,-126 2122.37,-126 1872.3,-126 1872.3,-126 1872.3,-126 1872.3,-151.72 1872.3,-151.72"/>
<polygon fill="black" stroke="black" points="1868.8,-151.72 1872.3,-161.72 1875.8,-151.72 1868.8,-151.72"/>
</g>
<!-- UsersCreateManyProvider -->
<g id="node43" class="node">
<title>UsersCreateManyProvider</title>
<ellipse fill="#fdb462" stroke="black" cx="1950" cy="-104" rx="114" ry="18"/>
<text text-anchor="middle" x="1950" y="-99.8" font-family="Times,serif" font-size="14.00">UsersCreateManyProvider</text>
</g>
<!-- UsersCreateManyProvider&#45;&gt;UsersModule -->
<g id="edge49" class="edge">
<title>UsersCreateManyProvider&#45;&gt;UsersModule</title>
<path fill="none" stroke="black" d="M1848.1,-112.13C1848.1,-112.13 1848.1,-151.88 1848.1,-151.88"/>
<polygon fill="black" stroke="black" points="1844.6,-151.88 1848.1,-161.88 1851.6,-151.88 1844.6,-151.88"/>
</g>
<!-- UsersService -->
<g id="node44" class="node">
<title>UsersService</title>
<ellipse fill="#fdb462" stroke="black" cx="1756" cy="-104" rx="61.95" ry="18"/>
<text text-anchor="middle" x="1756" y="-99.8" font-family="Times,serif" font-size="14.00">UsersService</text>
</g>
<!-- UsersService&#45;&gt;UsersModule -->
<g id="edge50" class="edge">
<title>UsersService&#45;&gt;UsersModule</title>
<path fill="none" stroke="black" d="M1811.55,-112.13C1811.55,-131.74 1811.55,-180 1811.55,-180 1811.55,-180 1819.22,-180 1819.22,-180"/>
<polygon fill="black" stroke="black" points="1819.22,-183.5 1829.22,-180 1819.22,-176.5 1819.22,-183.5"/>
</g>
</g>
</svg>
